<svg height="128" width="128" viewBox="0 0 128 128" xmlns="http://www.w3.org/2000/svg">
  <rect width="128" height="128" rx="22" fill="#111827"/>
  <circle cx="64" cy="64" r="43" fill="#1769aa"/>
  <path d="M31 54c11-18 29-27 48-22 9 3 12 11 8 20-8 4-16 5-23 2-7 5-14 10-25 11-5-1-8-4-8-11z" fill="#48b86f"/>
  <path d="M75 70c14-8 26-4 30 9-5 14-17 23-33 26-9-6-12-15-9-25 4-3 8-6 12-10z" fill="#64c878"/>
  <path d="M25 79c15 12 28 16 45 12" fill="none" stroke="#d7f3ff" stroke-opacity=".55" stroke-width="4" stroke-linecap="round"/>
  <path d="M32 33c19-12 46-13 68 3" fill="none" stroke="#8bd7ff" stroke-opacity=".32" stroke-width="3" stroke-linecap="round"/>
  <path d="M24 104h80" stroke="#f2b84b" stroke-width="5" stroke-linecap="round"/>
  <path d="M30 103l9-13 9 13 8-13 10 13 8-13 11 13 8-13 7 13" fill="none" stroke="#f2b84b" stroke-width="4" stroke-linejoin="round"/>
</svg>
